<svg width="126" height="57" viewBox="0 0 126 57" fill="none" xmlns="http://www.w3.org/2000/svg">
<path d="M115.035 17.2565C115.132 19.9834 116.314 21.3161 118.383 21.3161C119.78 21.3161 121.404 20.5052 122.804 19.5613L123.55 20.9273C122.054 22.4621 119.097 24.1734 116.304 24.1734C113.28 24.1734 111.231 22.0631 111.231 18.1646C111.231 12.3527 115.835 7.35179 121.049 7.35179C123.778 7.35179 125.044 8.74592 125.044 10.6951C125.037 14.5194 120.292 16.4686 115.035 17.2565ZM119.325 9.78704C117.409 9.78704 115.523 12.2555 115.035 15.5349C118.936 14.9185 121.113 13.2941 121.113 11.4421C121.105 10.3626 120.455 9.77937 119.317 9.77937L119.325 9.78704ZM120.499 33.3338C123.228 33.3338 124.497 34.7304 124.497 36.6797C124.497 40.5167 119.752 42.4583 114.485 43.2385C114.582 45.9679 115.764 47.2981 117.833 47.2981C119.23 47.2981 120.857 46.4872 122.254 45.5458L123.001 46.9093C121.507 48.4441 118.55 50.1554 115.754 50.1554C112.733 50.1477 110.686 48.0373 110.686 44.1415C110.686 38.327 115.291 33.3261 120.491 33.3261L120.499 33.3338ZM120.563 37.4266C120.563 36.3548 119.913 35.769 118.772 35.769C116.856 35.769 114.971 38.2375 114.482 41.5169C118.378 40.8927 120.555 39.2684 120.555 37.4189L120.563 37.4266ZM102.572 23.6132L98.3155 24.0046L93.115 9.93541C92.4906 9.8138 91.8804 9.62866 91.2937 9.38287V7.72782H99.2568V9.35218C98.5521 9.6175 97.823 9.81285 97.08 9.93541L101.045 20.9784L105.058 10.007C104.312 9.87657 103.337 9.68216 102.756 9.35729V7.73294H109.97V9.38799C109.372 9.6636 108.737 9.84977 108.085 9.94052L102.572 23.6132ZM86.8529 4.97794C86.3608 4.97743 85.8798 4.83103 85.4708 4.55723C85.0619 4.28343 84.7432 3.89452 84.5553 3.43968C84.3673 2.98484 84.3183 2.48447 84.4147 2.00183C84.511 1.51918 84.7482 1.07593 85.0964 0.7281C85.4446 0.380268 85.8881 0.143469 86.3709 0.0476384C86.8536 -0.0481918 87.3539 0.00124997 87.8086 0.189709C88.2632 0.378168 88.6518 0.697185 88.9252 1.10644C89.1986 1.51569 89.3445 1.99681 89.3445 2.48897C89.3438 3.14932 89.081 3.78239 88.6138 4.24909C88.1466 4.71579 87.5133 4.97794 86.8529 4.97794ZM88.0654 8.94289C88.0654 9.26776 88.0015 9.75379 87.9682 10.0787L86.2441 20.6664C86.3373 20.7681 86.4228 20.8767 86.4999 20.9912H89.1654V22.2575C87.6638 23.0607 84.6863 24.1632 83.571 24.1632C82.6629 24.1632 82.2075 23.58 82.2075 22.6054C82.2075 22.3112 82.3047 21.7612 82.338 21.467L84.0596 10.8793L83.8038 10.5544H81.1434V9.28823C82.6373 8.44408 85.6609 7.34156 86.6994 7.34156C87.6434 7.34412 88.0654 7.96061 88.0654 8.93522V8.94289ZM71.8654 46.1879V36.2115H69.4609V33.9374H71.8654L73.7507 29.6502H75.4722V33.9374H80.4144V36.2115H75.4722V44.9089C75.4722 46.5997 76.2857 47.3467 77.6517 47.3467C78.679 47.3237 79.6976 47.1514 80.6753 46.8351L81.0308 48.4569C79.4704 49.1731 77.0019 50.1452 75.1167 50.1452C72.8093 50.1477 71.8654 48.7536 71.8654 46.1879ZM69.4711 20.2034V10.227H67.064V7.95293H69.4711L71.3564 3.66566H73.083V7.95293H78.0226V10.227H73.083V18.9243C73.083 20.6126 73.8965 21.3596 75.2599 21.3596C76.2873 21.3371 77.3059 21.1647 78.2835 20.848L78.6416 22.4723C77.0812 23.186 74.6102 24.1606 72.7249 24.1606C70.4124 24.1632 69.4711 22.7691 69.4711 20.2034ZM64.2987 40.2098L63.649 36.7999C62.9328 36.4111 61.7305 36.1195 60.3005 36.1195C57.6351 36.1195 55.783 37.9101 55.783 41.3481C55.783 45.3744 58.1543 47.3237 61.6972 47.3237C63.2954 47.2923 64.8773 46.9958 66.3784 46.4462V48.7485C65.3066 49.3957 62.6411 50.1426 60.1701 50.1426C54.8417 50.1426 52.2402 47.2213 52.2402 42.6731C52.2402 37.3141 56.044 33.321 61.4696 33.321C63.516 33.321 65.4678 33.9042 66.7033 34.6844C66.6735 36.4622 66.4886 38.2339 66.1508 39.9795L64.2987 40.2098ZM59.1827 24.1658C58.3385 24.1658 57.9164 23.6541 57.9164 22.7691C57.9164 21.7638 59.3131 16.241 59.3131 16.241H58.955C56.397 21.8917 54.5015 24.1709 52.033 24.1709C49.92 24.1709 48.1652 21.994 48.1652 18.7811C48.1652 12.8055 52.7697 7.34923 57.5916 7.34923C58.5052 7.3418 59.4111 7.51569 60.257 7.86084C60.5116 7.35015 60.9053 6.92184 61.3928 6.62531L63.6183 7.04995L61.4747 20.6919L61.7305 20.9836H64.5264V22.283C63.4444 22.8663 60.3568 24.1632 59.1852 24.1632L59.1827 24.1658ZM56.3867 9.71286C53.7545 9.71286 51.9997 13.5499 51.9997 17.2488C51.9997 19.6508 52.6188 21.0859 53.821 21.0859C54.7624 21.0859 57.4611 16.6042 59.5408 10.4982C58.7299 9.97378 57.3 9.71286 56.3893 9.71286H56.3867ZM46.7916 46.6739L47.0474 46.9655H49.8433V48.265C48.7689 48.8508 45.6814 50.1477 44.5123 50.1477C43.6656 50.1477 43.2333 49.6361 43.2333 48.7536C43.2333 47.7457 44.6326 42.2255 44.6326 42.2255H44.2745C41.7164 47.8762 39.8209 50.1554 37.3499 50.1554C35.2395 50.1554 33.4821 47.9811 33.4821 44.7656C33.4821 38.79 38.0994 33.3338 42.9085 33.3338C43.8219 33.3275 44.7277 33.5013 45.5739 33.8454C45.8345 33.3293 46.2375 32.8987 46.7353 32.6047L48.9454 33.0268L46.7916 46.6739ZM41.7215 35.6974C39.0893 35.6974 37.3345 39.5344 37.3345 43.2308C37.3345 45.6353 37.951 47.0678 39.1533 47.0678C40.0972 47.0678 42.7934 42.5862 44.8756 36.4801C44.0621 35.9557 42.6424 35.6974 41.7215 35.6974ZM35.6436 17.2565C35.7409 19.9834 36.9227 21.3161 38.9921 21.3161C40.3888 21.3161 42.0132 20.5052 43.4124 19.5613L44.1593 20.9273C42.6629 22.4621 39.7058 24.1734 36.9124 24.1734C33.8888 24.1734 31.8398 22.0631 31.8398 18.1646C31.8398 12.3527 36.4571 7.35179 41.6576 7.35179C44.387 7.35179 45.6532 8.74592 45.6532 10.6951C45.6532 14.5194 40.9081 16.4686 35.6436 17.2565ZM39.9335 9.78704C38.0175 9.78704 36.1322 12.2555 35.6436 15.5349C39.5447 14.9185 41.7215 13.2941 41.7215 11.4421C41.7215 10.3626 41.0718 9.77937 39.9335 9.77937V9.78704ZM31.7478 37.4573H30.2129C29.4605 37.4444 28.7156 37.6083 28.0381 37.9357C27.3606 38.2632 26.7693 38.745 26.3119 39.3426V47.4618C27.4666 47.5435 28.6045 47.7837 29.6937 48.1755V49.7998H20.3031V48.1422C21.0876 47.8247 21.9054 47.5965 22.7409 47.4618V37.0608C21.849 36.8832 21.0129 36.4936 20.3031 35.925V34.646L25.4703 33.3798H26.1533L25.8975 37.5366H26.0919C27.2942 34.6793 28.7574 33.4131 30.9343 33.4131C31.4139 33.3933 31.8919 33.4807 32.3336 33.6689L31.7478 37.4573ZM27.9798 11.4677C27.2277 11.4549 26.483 11.6186 25.8056 11.9455C25.1281 12.2725 24.5367 12.7536 24.0788 13.3504V21.4696C25.2325 21.5537 26.3693 21.7946 27.4579 22.1858V23.8102H18.0648V22.1526C18.8497 21.8355 19.6673 21.6064 20.5026 21.4696V11.0789C19.6105 10.9004 18.7744 10.5099 18.0648 9.94052V8.6743L23.2346 7.40807H23.9151L23.6593 11.5649H23.8537C25.0559 8.70755 26.5191 7.44133 28.696 7.44133C29.1756 7.42278 29.6533 7.51011 30.0953 7.69713L29.5095 11.4651L27.9798 11.4677ZM9.10149 50.2142C8.09314 50.2205 7.0952 50.0103 6.17509 49.5977V54.2738C7.14244 54.3855 8.09253 54.6148 9.00428 54.9568V56.6119H0V54.9568C0.791052 54.6243 1.62153 54.3948 2.47106 54.2738V37.0608C1.65761 36.8971 0.552533 36.4111 0.0332518 35.925V34.646L5.29513 33.39H5.94487V35.4697C6.98599 34.82 9.16288 33.3261 11.9256 33.3261C15.2101 33.3261 17.7451 35.6283 17.7451 40.5039C17.7476 46.6739 13.8799 50.2142 9.10149 50.2142ZM9.42635 36.2806C8.28874 36.3137 7.17492 36.6143 6.17509 37.158V46.4462C7.30295 47.1253 8.59861 47.4745 9.91494 47.4541C12.7083 47.4541 14.2048 45.7965 14.2048 42.1922C14.2048 38.3603 12.2018 36.2806 9.42635 36.2806ZM12.2862 14.2278L11.6365 10.8179C10.9202 10.4291 9.71797 10.1349 8.28803 10.1349C5.62256 10.1349 3.77054 11.9256 3.77054 15.3661C3.77054 19.3925 6.1444 21.3417 9.68727 21.3417C11.2846 21.3101 12.8657 21.0136 14.3659 20.4643V22.7665C13.2941 23.4163 10.6286 24.1632 8.15757 24.1632C2.82919 24.1632 0.227665 21.2394 0.227665 16.6937C0.227665 11.3347 4.03146 7.34156 9.45961 7.34156C11.506 7.34156 13.4553 7.92479 14.6908 8.705C14.6611 10.4819 14.4762 12.2528 14.1383 13.9976L12.2862 14.2278ZM85.6609 28.3558L88.4747 25.542L91.2886 28.3558L88.4747 31.1697L85.6609 28.3558ZM88.6077 33.3261C89.5517 33.3261 89.9737 33.9426 89.9737 34.9172C89.9737 35.2421 89.9072 35.7281 89.8765 36.0529L88.1524 46.6407C88.245 46.7429 88.3305 46.8515 88.4082 46.9655H91.0737V48.2317C89.5772 49.0452 86.5869 50.1477 85.4818 50.1477C84.5737 50.1477 84.1184 49.5645 84.1184 48.5899C84.1184 48.2983 84.2156 47.7457 84.2489 47.4541L85.9704 36.8664L85.7146 36.5415H83.0594V35.2753C84.5456 34.4312 87.5692 33.3261 88.6077 33.3261ZM102.718 33.3261C104.764 33.3261 106.716 33.9093 107.952 34.6895C107.922 36.4673 107.737 38.239 107.399 39.9846L105.547 40.2098L104.895 36.7999C104.181 36.4111 102.979 36.1195 101.549 36.1195C98.8834 36.1195 97.0288 37.9101 97.0288 41.3481C97.0288 45.3744 99.4026 47.3237 102.946 47.3237C104.544 47.2921 106.126 46.9956 107.627 46.4462V48.7485C106.552 49.3957 103.887 50.1426 101.418 50.1426C96.0874 50.1426 93.4885 47.2213 93.4885 42.6731C93.4885 37.3192 97.2897 33.3261 102.718 33.3261Z" fill="#E9ECF3"/>
</svg>
